<svg width="1066" height="195" viewBox="0 0 1066 195" fill="none" xmlns="http://www.w3.org/2000/svg">
<g filter="url(#filter0_i_113_53)">
<path d="M155.78 1.01999L102.66 114.044L115.204 133.628H92.548L7.684 1.14799H30.212L101.892 113.02L154.756 0.507996L155.78 1.01999ZM172.776 129.404C175.336 131.964 178.664 133.244 182.76 133.244H164.328C160.232 133.244 156.904 131.964 154.344 129.404C151.656 126.844 150.376 123.644 150.376 119.932L149.736 46.204C149.736 61.564 169.064 56.956 169.064 84.092V119.932C169.064 123.644 170.344 126.844 172.776 129.404ZM167.784 36.092L158.056 45.82L148.328 36.092L158.056 26.236L167.784 36.092ZM405.036 133.372H391.596V133.244H386.22C379.18 133.244 373.42 127.484 373.42 120.444C373.42 113.916 373.292 106.236 373.292 100.604C373.292 75.9 365.228 62.46 353.836 59.26C347.308 57.34 339.244 58.492 329.516 64.38C333.1 68.348 335.788 73.084 337.836 78.204C338.988 81.404 340.78 90.108 340.78 104.828C340.908 110.972 340.908 117.628 340.908 123.004C341.42 125.436 342.572 127.612 344.492 129.532C346.924 132.092 350.252 133.372 354.348 133.372H340.78V133.244H335.532C328.492 133.244 322.732 127.484 322.604 120.444C322.604 113.916 322.604 106.236 322.604 100.604C322.604 75.9 314.54 62.46 303.148 59.26C296.62 57.468 288.684 58.492 279.084 64.252C282.156 68.092 284.332 73.724 284.332 83.068V120.06C284.332 123.772 285.612 126.972 288.172 129.532C290.732 132.092 294.06 133.372 298.028 133.372H279.724C275.628 133.372 272.3 132.092 269.612 129.532C267.052 126.972 265.644 123.772 265.644 120.06L265.388 76.796C261.548 81.276 257.964 86.268 254.508 91.132V120.188C254.508 123.9 255.788 127.1 258.348 129.66C260.908 132.22 264.236 133.5 268.204 133.5H249.9C245.804 133.5 242.476 132.22 239.788 129.66C237.228 127.1 235.948 123.9 235.948 120.188V115.964C230.828 121.084 225.068 125.18 218.156 127.228C210.476 130.556 193.708 136.956 186.284 131.324C173.1 120.188 181.932 91.004 222.508 85.628C237.356 82.556 235.948 71.292 235.948 71.292C235.948 67.324 234.156 61.692 231.724 59.132C229.292 56.956 225.068 55.804 220.588 55.676C207.02 56.188 201.26 68.732 200.876 75.516L190.508 71.804C192.812 61.948 209.836 53.884 224.94 54.524C235.052 54.78 245.932 59.132 251.18 68.86C253.484 72.316 254.508 76.412 254.508 81.02V89.212C257.964 84.348 261.42 79.484 265.388 75.132L265.132 45.18C265.132 54.78 272.684 56.572 278.316 63.228C281.004 61.308 283.948 59.644 287.148 58.236C305.196 49.02 319.532 53.628 329.004 63.74C358.956 42.108 380.46 57.34 388.524 78.204C389.804 81.404 391.468 90.108 391.468 104.828C391.596 110.972 391.596 117.628 391.724 123.004C392.236 125.436 393.388 127.612 395.18 129.532C397.74 132.092 400.94 133.372 405.036 133.372ZM219.18 125.692C225.708 123.516 231.084 119.42 235.948 114.3L236.46 75.9C235.948 78.716 233.26 84.092 220.46 87.932C192.172 97.788 193.836 128.124 219.18 125.692ZM466.728 133.244H447.4V0.635986H466.728V133.244ZM567.202 133.244H553.762V133.116H548.386C541.346 133.116 535.586 127.356 535.586 120.316C535.586 113.916 535.586 106.236 535.458 100.476C535.458 75.9 527.522 62.46 516.002 59.132C509.602 57.34 501.538 58.492 492.066 64.124C495.01 68.092 497.314 73.596 497.314 82.94V119.932C497.314 123.644 498.594 126.844 501.154 129.404C503.586 131.964 506.914 133.244 511.01 133.244H492.578C488.61 133.244 485.154 131.964 482.594 129.404C479.906 126.844 478.626 123.644 478.626 119.932L478.114 45.052C478.114 54.908 485.794 56.572 491.554 63.484C521.25 42.236 542.626 57.34 550.69 78.204C551.97 81.276 553.762 90.108 553.762 104.828C553.762 110.844 553.89 117.628 553.89 123.004C554.402 125.436 555.554 127.612 557.346 129.404C559.906 131.964 563.234 133.244 567.202 133.244ZM639.456 54.14L640.48 54.652L600.032 133.628L599.52 133.372V133.5C599.52 133.372 599.52 133.372 599.392 133.372L599.136 133.116L599.264 132.988C584.032 108.412 556.768 94.076 556.768 54.268H557.664V54.396H575.968C574.688 89.34 601.44 101.116 608.224 115.196L639.456 54.14ZM683.545 95.868C676.121 103.292 669.465 110.076 659.481 110.972C668.569 125.564 681.753 133.5 691.097 129.276C696.473 126.844 699.545 120.956 700.313 113.276L702.745 121.98C699.545 125.18 695.705 127.868 691.353 129.916C671.513 138.876 648.217 130.172 639.129 110.332C630.169 90.492 638.873 67.068 658.713 58.108C677.785 49.404 700.185 57.212 709.913 75.516L709.785 75.644C709.913 75.516 709.913 75.516 710.041 75.516L710.425 76.54C708.249 77.308 706.201 78.204 704.281 79.1L694.937 85.116C690.713 88.572 687.001 92.284 683.545 95.868ZM658.841 109.948C668.697 109.308 675.225 102.78 682.649 95.1C686.233 91.516 690.073 87.548 694.553 84.092C685.593 65.148 669.849 53.756 658.969 58.62C648.089 63.612 646.297 83.452 655.257 103.036C656.281 105.468 657.561 107.772 658.841 109.948ZM804.827 133.244H791.387V133.116H786.011C778.971 133.116 773.211 127.356 773.211 120.316C773.211 113.916 773.211 106.236 773.083 100.476C773.083 75.9 765.147 62.46 753.627 59.132C747.227 57.34 739.163 58.492 729.691 64.124C732.635 68.092 734.939 73.596 734.939 82.94V119.932C734.939 123.644 736.219 126.844 738.779 129.404C741.211 131.964 744.539 133.244 748.635 133.244H730.203C726.235 133.244 722.779 131.964 720.219 129.404C717.531 126.844 716.251 123.644 716.251 119.932L715.739 45.052C715.739 54.908 723.419 56.572 729.179 63.484C758.875 42.236 780.251 57.34 788.315 78.204C789.595 81.276 791.387 90.108 791.387 104.828C791.387 110.844 791.515 117.628 791.515 123.004C792.027 125.436 793.179 127.612 794.971 129.404C797.531 131.964 800.859 133.244 804.827 133.244ZM826.401 129.404C828.961 131.964 832.289 133.244 836.385 133.244H817.953C813.857 133.244 810.529 131.964 807.969 129.404C805.281 126.844 804.001 123.644 804.001 119.932L803.361 46.204C803.361 61.564 822.689 56.956 822.689 84.092V119.932C822.689 123.644 823.969 126.844 826.401 129.404ZM821.409 36.092L811.681 45.82L801.953 36.092L811.681 26.236L821.409 36.092ZM1058.66 133.372H1045.22V133.244H1039.85C1032.81 133.244 1027.05 127.484 1027.05 120.444C1027.05 113.916 1026.92 106.236 1026.92 100.604C1026.92 75.9 1018.85 62.46 1007.46 59.26C1000.93 57.34 992.869 58.492 983.141 64.38C986.725 68.348 989.413 73.084 991.461 78.204C992.613 81.404 994.405 90.108 994.405 104.828C994.533 110.972 994.533 117.628 994.533 123.004C995.045 125.436 996.197 127.612 998.117 129.532C1000.55 132.092 1003.88 133.372 1007.97 133.372H994.405V133.244H989.157C982.117 133.244 976.357 127.484 976.229 120.444C976.229 113.916 976.229 106.236 976.229 100.604C976.229 75.9 968.165 62.46 956.773 59.26C950.245 57.468 942.309 58.492 932.709 64.252C935.781 68.092 937.957 73.724 937.957 83.068V120.06C937.957 123.772 939.237 126.972 941.797 129.532C944.357 132.092 947.685 133.372 951.653 133.372H933.349C929.253 133.372 925.925 132.092 923.237 129.532C920.677 126.972 919.269 123.772 919.269 120.06L919.013 76.796C915.173 81.276 911.589 86.268 908.133 91.132V120.188C908.133 123.9 909.413 127.1 911.973 129.66C914.533 132.22 917.861 133.5 921.829 133.5H903.525C899.429 133.5 896.101 132.22 893.413 129.66C890.853 127.1 889.573 123.9 889.573 120.188V115.964C884.453 121.084 878.693 125.18 871.781 127.228C864.101 130.556 847.333 136.956 839.909 131.324C826.725 120.188 835.557 91.004 876.133 85.628C890.981 82.556 889.573 71.292 889.573 71.292C889.573 67.324 887.781 61.692 885.349 59.132C882.917 56.956 878.693 55.804 874.213 55.676C860.645 56.188 854.885 68.732 854.501 75.516L844.133 71.804C846.437 61.948 863.461 53.884 878.565 54.524C888.677 54.78 899.557 59.132 904.805 68.86C907.109 72.316 908.133 76.412 908.133 81.02V89.212C911.589 84.348 915.045 79.484 919.013 75.132L918.757 45.18C918.757 54.78 926.309 56.572 931.941 63.228C934.629 61.308 937.573 59.644 940.773 58.236C958.821 49.02 973.157 53.628 982.629 63.74C1012.58 42.108 1034.09 57.34 1042.15 78.204C1043.43 81.404 1045.09 90.108 1045.09 104.828C1045.22 110.972 1045.22 117.628 1045.35 123.004C1045.86 125.436 1047.01 127.612 1048.81 129.532C1051.37 132.092 1054.57 133.372 1058.66 133.372ZM872.805 125.692C879.333 123.516 884.709 119.42 889.573 114.3L890.085 75.9C889.573 78.716 886.885 84.092 874.085 87.932C845.797 97.788 847.461 128.124 872.805 125.692Z" fill="url(#paint0_linear_113_53)"/>
</g>
<path d="M354.46 172.944V174.22H346.518V172.944H354.46ZM373.359 163.924C373.3 164.437 373.256 164.936 373.227 165.42C373.212 165.904 373.205 166.271 373.205 166.52C373.205 166.784 373.212 167.041 373.227 167.29C373.242 167.525 373.256 167.723 373.271 167.884H372.765C372.677 167.019 372.552 166.337 372.391 165.838C372.23 165.325 371.951 164.965 371.555 164.76C371.174 164.54 370.594 164.43 369.817 164.43H367.991C367.492 164.43 367.111 164.474 366.847 164.562C366.598 164.635 366.429 164.804 366.341 165.068C366.253 165.317 366.209 165.713 366.209 166.256V177.168C366.209 177.696 366.253 178.092 366.341 178.356C366.429 178.62 366.598 178.796 366.847 178.884C367.111 178.957 367.492 178.994 367.991 178.994H369.597C370.521 178.994 371.218 178.869 371.687 178.62C372.171 178.371 372.516 177.967 372.721 177.41C372.941 176.838 373.102 176.068 373.205 175.1H373.711C373.667 175.496 373.645 176.024 373.645 176.684C373.645 176.963 373.652 177.366 373.667 177.894C373.696 178.407 373.74 178.943 373.799 179.5C373.051 179.471 372.208 179.456 371.269 179.456C370.33 179.441 369.494 179.434 368.761 179.434C368.438 179.434 368.02 179.434 367.507 179.434C367.008 179.434 366.466 179.441 365.879 179.456C365.292 179.456 364.698 179.463 364.097 179.478C363.496 179.478 362.924 179.485 362.381 179.5V179.06C362.88 179.031 363.254 178.972 363.503 178.884C363.767 178.796 363.943 178.62 364.031 178.356C364.119 178.092 364.163 177.696 364.163 177.168V166.256C364.163 165.713 364.119 165.317 364.031 165.068C363.943 164.804 363.767 164.628 363.503 164.54C363.254 164.437 362.88 164.379 362.381 164.364V163.924C362.924 163.939 363.496 163.953 364.097 163.968C364.698 163.968 365.292 163.975 365.879 163.99C366.466 163.99 367.008 163.99 367.507 163.99C368.02 163.99 368.438 163.99 368.761 163.99C369.436 163.99 370.198 163.99 371.049 163.99C371.914 163.975 372.684 163.953 373.359 163.924ZM369.575 171.448C369.575 171.448 369.575 171.521 369.575 171.668C369.575 171.815 369.575 171.888 369.575 171.888H365.549C365.549 171.888 365.549 171.815 365.549 171.668C365.549 171.521 365.549 171.448 365.549 171.448H369.575ZM370.213 168.544C370.154 169.38 370.125 170.018 370.125 170.458C370.14 170.898 370.147 171.301 370.147 171.668C370.147 172.035 370.154 172.438 370.169 172.878C370.184 173.318 370.22 173.956 370.279 174.792H369.773C369.714 174.323 369.641 173.868 369.553 173.428C369.48 172.973 369.304 172.607 369.025 172.328C368.761 172.035 368.306 171.888 367.661 171.888V171.448C368.145 171.448 368.512 171.353 368.761 171.162C369.025 170.957 369.216 170.7 369.333 170.392C369.45 170.084 369.531 169.769 369.575 169.446C369.619 169.109 369.663 168.808 369.707 168.544H370.213ZM380.495 163.682C381.229 163.682 381.786 163.77 382.167 163.946C382.549 164.107 382.886 164.291 383.179 164.496C383.355 164.599 383.495 164.679 383.597 164.738C383.715 164.782 383.825 164.804 383.927 164.804C384.074 164.804 384.177 164.723 384.235 164.562C384.309 164.401 384.367 164.159 384.411 163.836H384.917C384.903 164.085 384.881 164.386 384.851 164.738C384.837 165.075 384.822 165.53 384.807 166.102C384.807 166.659 384.807 167.4 384.807 168.324H384.301C384.257 167.62 384.103 166.945 383.839 166.3C383.575 165.655 383.187 165.127 382.673 164.716C382.175 164.305 381.515 164.1 380.693 164.1C379.916 164.1 379.271 164.335 378.757 164.804C378.259 165.273 378.009 165.889 378.009 166.652C378.009 167.312 378.178 167.869 378.515 168.324C378.853 168.764 379.3 169.167 379.857 169.534C380.429 169.886 381.045 170.267 381.705 170.678C382.468 171.147 383.143 171.617 383.729 172.086C384.331 172.541 384.8 173.047 385.137 173.604C385.489 174.161 385.665 174.836 385.665 175.628C385.665 176.567 385.453 177.344 385.027 177.96C384.602 178.576 384.037 179.038 383.333 179.346C382.629 179.654 381.852 179.808 381.001 179.808C380.224 179.808 379.608 179.72 379.153 179.544C378.699 179.368 378.31 179.185 377.987 178.994C377.665 178.789 377.415 178.686 377.239 178.686C377.093 178.686 376.983 178.767 376.909 178.928C376.851 179.089 376.799 179.331 376.755 179.654H376.249C376.279 179.346 376.293 178.987 376.293 178.576C376.308 178.151 376.315 177.601 376.315 176.926C376.33 176.251 376.337 175.401 376.337 174.374H376.843C376.902 175.254 377.063 176.075 377.327 176.838C377.606 177.601 378.024 178.217 378.581 178.686C379.153 179.141 379.909 179.368 380.847 179.368C381.331 179.368 381.786 179.273 382.211 179.082C382.651 178.877 383.011 178.561 383.289 178.136C383.568 177.696 383.707 177.131 383.707 176.442C383.707 175.841 383.561 175.32 383.267 174.88C382.989 174.425 382.593 174.007 382.079 173.626C381.566 173.23 380.965 172.827 380.275 172.416C379.586 171.991 378.941 171.558 378.339 171.118C377.738 170.678 377.254 170.172 376.887 169.6C376.535 169.013 376.359 168.309 376.359 167.488C376.359 166.623 376.55 165.911 376.931 165.354C377.327 164.782 377.841 164.364 378.471 164.1C379.102 163.821 379.777 163.682 380.495 163.682ZM394.906 163.616C395.874 163.616 396.666 163.763 397.282 164.056C397.913 164.335 398.47 164.665 398.954 165.046C399.247 165.266 399.467 165.295 399.614 165.134C399.775 164.958 399.885 164.555 399.944 163.924H400.45C400.421 164.467 400.399 165.127 400.384 165.904C400.369 166.681 400.362 167.708 400.362 168.984H399.856C399.753 168.353 399.658 167.855 399.57 167.488C399.482 167.107 399.372 166.784 399.24 166.52C399.123 166.256 398.961 165.992 398.756 165.728C398.301 165.127 397.729 164.694 397.04 164.43C396.351 164.151 395.625 164.012 394.862 164.012C394.143 164.012 393.491 164.195 392.904 164.562C392.332 164.914 391.833 165.427 391.408 166.102C390.997 166.777 390.675 167.591 390.44 168.544C390.22 169.497 390.11 170.568 390.11 171.756C390.11 172.988 390.235 174.081 390.484 175.034C390.733 175.973 391.078 176.765 391.518 177.41C391.973 178.055 392.501 178.547 393.102 178.884C393.718 179.207 394.378 179.368 395.082 179.368C395.742 179.368 396.431 179.236 397.15 178.972C397.869 178.708 398.433 178.283 398.844 177.696C399.167 177.271 399.387 176.809 399.504 176.31C399.636 175.811 399.753 175.115 399.856 174.22H400.362C400.362 175.555 400.369 176.633 400.384 177.454C400.399 178.261 400.421 178.943 400.45 179.5H399.944C399.885 178.869 399.783 178.473 399.636 178.312C399.504 178.151 399.277 178.173 398.954 178.378C398.411 178.759 397.832 179.097 397.216 179.39C396.615 179.669 395.837 179.808 394.884 179.808C393.491 179.808 392.266 179.493 391.21 178.862C390.169 178.231 389.355 177.322 388.768 176.134C388.196 174.946 387.91 173.516 387.91 171.844C387.91 170.201 388.211 168.764 388.812 167.532C389.413 166.3 390.235 165.339 391.276 164.65C392.332 163.961 393.542 163.616 394.906 163.616ZM402.815 163.924C403.123 163.939 403.526 163.953 404.025 163.968C404.523 163.983 405.015 163.99 405.499 163.99C406.188 163.99 406.848 163.983 407.479 163.968C408.109 163.953 408.557 163.946 408.821 163.946C410.009 163.946 410.991 164.115 411.769 164.452C412.561 164.789 413.147 165.251 413.529 165.838C413.925 166.41 414.123 167.055 414.123 167.774C414.123 168.214 414.035 168.683 413.859 169.182C413.683 169.681 413.375 170.15 412.935 170.59C412.509 171.03 411.923 171.397 411.175 171.69C410.427 171.969 409.481 172.108 408.337 172.108H406.225V171.668H408.117C409.158 171.668 409.95 171.507 410.493 171.184C411.05 170.847 411.424 170.407 411.615 169.864C411.82 169.307 411.923 168.691 411.923 168.016C411.923 166.857 411.644 165.963 411.087 165.332C410.544 164.687 409.605 164.364 408.271 164.364C407.596 164.364 407.156 164.489 406.951 164.738C406.745 164.987 406.643 165.493 406.643 166.256V177.168C406.643 177.696 406.687 178.092 406.775 178.356C406.863 178.62 407.031 178.796 407.281 178.884C407.545 178.972 407.926 179.031 408.425 179.06V179.5C408.087 179.471 407.662 179.456 407.149 179.456C406.65 179.441 406.144 179.434 405.631 179.434C405.059 179.434 404.523 179.441 404.025 179.456C403.526 179.456 403.123 179.471 402.815 179.5V179.06C403.313 179.031 403.687 178.972 403.937 178.884C404.201 178.796 404.377 178.62 404.465 178.356C404.553 178.092 404.597 177.696 404.597 177.168V166.256C404.597 165.713 404.553 165.317 404.465 165.068C404.377 164.804 404.201 164.628 403.937 164.54C403.687 164.437 403.313 164.379 402.815 164.364V163.924ZM406.313 171.734C407.105 171.763 407.728 171.8 408.183 171.844C408.637 171.873 409.004 171.903 409.283 171.932C409.576 171.961 409.855 171.998 410.119 172.042C411.101 172.203 411.805 172.504 412.231 172.944C412.671 173.369 412.993 174.037 413.199 174.946L413.749 177.19C413.895 177.835 414.042 178.305 414.189 178.598C414.35 178.877 414.592 179.009 414.915 178.994C415.164 178.979 415.369 178.899 415.531 178.752C415.707 178.605 415.89 178.407 416.081 178.158L416.411 178.4C416.103 178.855 415.78 179.207 415.443 179.456C415.12 179.691 414.658 179.808 414.057 179.808C413.514 179.808 413.037 179.647 412.627 179.324C412.216 179.001 411.908 178.371 411.703 177.432L411.219 175.232C411.087 174.601 410.933 174.059 410.757 173.604C410.595 173.135 410.361 172.768 410.053 172.504C409.759 172.24 409.319 172.108 408.733 172.108H406.357L406.313 171.734ZM422.69 163.924V164.364C422.192 164.379 421.81 164.437 421.546 164.54C421.297 164.628 421.128 164.804 421.04 165.068C420.952 165.317 420.908 165.713 420.908 166.256V177.168C420.908 177.696 420.952 178.092 421.04 178.356C421.128 178.62 421.297 178.796 421.546 178.884C421.81 178.972 422.192 179.031 422.69 179.06V179.5C422.353 179.471 421.928 179.456 421.414 179.456C420.916 179.441 420.41 179.434 419.896 179.434C419.324 179.434 418.789 179.441 418.29 179.456C417.792 179.456 417.388 179.471 417.08 179.5V179.06C417.579 179.031 417.953 178.972 418.202 178.884C418.466 178.796 418.642 178.62 418.73 178.356C418.818 178.092 418.862 177.696 418.862 177.168V166.256C418.862 165.713 418.818 165.317 418.73 165.068C418.642 164.804 418.466 164.628 418.202 164.54C417.953 164.437 417.579 164.379 417.08 164.364V163.924C417.388 163.939 417.792 163.953 418.29 163.968C418.789 163.983 419.324 163.99 419.896 163.99C420.41 163.99 420.916 163.983 421.414 163.968C421.928 163.953 422.353 163.939 422.69 163.924ZM436.635 163.924C436.577 164.481 436.533 165.024 436.503 165.552C436.489 166.065 436.481 166.461 436.481 166.74C436.481 167.092 436.489 167.422 436.503 167.73C436.518 168.038 436.533 168.309 436.547 168.544H436.041C435.939 167.517 435.799 166.711 435.623 166.124C435.447 165.523 435.139 165.09 434.699 164.826C434.259 164.562 433.577 164.43 432.653 164.43H431.465V176.948C431.465 177.535 431.517 177.975 431.619 178.268C431.737 178.561 431.957 178.759 432.279 178.862C432.602 178.965 433.071 179.031 433.687 179.06V179.5C433.306 179.471 432.822 179.456 432.235 179.456C431.649 179.441 431.055 179.434 430.453 179.434C429.793 179.434 429.17 179.441 428.583 179.456C428.011 179.456 427.549 179.471 427.197 179.5V179.06C427.813 179.031 428.283 178.965 428.605 178.862C428.928 178.759 429.141 178.561 429.243 178.268C429.361 177.975 429.419 177.535 429.419 176.948V164.43H428.231C427.322 164.43 426.64 164.562 426.185 164.826C425.745 165.09 425.437 165.523 425.261 166.124C425.085 166.711 424.946 167.517 424.843 168.544H424.337C424.367 168.309 424.381 168.038 424.381 167.73C424.396 167.422 424.403 167.092 424.403 166.74C424.403 166.461 424.389 166.065 424.359 165.552C424.345 165.024 424.308 164.481 424.249 163.924C424.865 163.939 425.533 163.953 426.251 163.968C426.985 163.983 427.718 163.99 428.451 163.99C429.185 163.99 429.852 163.99 430.453 163.99C431.055 163.99 431.715 163.99 432.433 163.99C433.167 163.99 433.9 163.983 434.633 163.968C435.367 163.953 436.034 163.939 436.635 163.924ZM445.437 163.616C446.831 163.616 448.048 163.931 449.089 164.562C450.145 165.193 450.959 166.102 451.531 167.29C452.118 168.463 452.411 169.893 452.411 171.58C452.411 173.223 452.111 174.66 451.509 175.892C450.923 177.124 450.101 178.085 449.045 178.774C447.989 179.463 446.779 179.808 445.415 179.808C444.022 179.808 442.797 179.493 441.741 178.862C440.7 178.231 439.886 177.322 439.299 176.134C438.727 174.946 438.441 173.516 438.441 171.844C438.441 170.201 438.742 168.764 439.343 167.532C439.945 166.3 440.766 165.339 441.807 164.65C442.863 163.961 444.073 163.616 445.437 163.616ZM445.349 164.012C444.396 164.012 443.567 164.342 442.863 165.002C442.159 165.662 441.609 166.571 441.213 167.73C440.832 168.889 440.641 170.231 440.641 171.756C440.641 173.311 440.854 174.667 441.279 175.826C441.719 176.97 442.306 177.857 443.039 178.488C443.787 179.104 444.609 179.412 445.503 179.412C446.457 179.412 447.285 179.082 447.989 178.422C448.693 177.762 449.236 176.853 449.617 175.694C450.013 174.521 450.211 173.179 450.211 171.668C450.211 170.099 449.991 168.742 449.551 167.598C449.126 166.454 448.547 165.574 447.813 164.958C447.08 164.327 446.259 164.012 445.349 164.012ZM447.747 159.128C448.041 158.937 448.305 158.871 448.539 158.93C448.789 158.974 448.972 159.091 449.089 159.282C449.207 159.473 449.236 159.685 449.177 159.92C449.119 160.14 448.935 160.353 448.627 160.558C448.319 160.749 447.96 160.925 447.549 161.086C447.153 161.233 446.684 161.416 446.141 161.636C445.613 161.841 444.968 162.135 444.205 162.516L444.051 162.23C444.726 161.717 445.276 161.269 445.701 160.888C446.141 160.492 446.515 160.147 446.823 159.854C447.131 159.561 447.439 159.319 447.747 159.128ZM454.334 163.924C454.642 163.939 455.045 163.953 455.544 163.968C456.043 163.983 456.534 163.99 457.018 163.99C457.707 163.99 458.367 163.983 458.998 163.968C459.629 163.953 460.076 163.946 460.34 163.946C461.528 163.946 462.511 164.115 463.288 164.452C464.08 164.789 464.667 165.251 465.048 165.838C465.444 166.41 465.642 167.055 465.642 167.774C465.642 168.214 465.554 168.683 465.378 169.182C465.202 169.681 464.894 170.15 464.454 170.59C464.029 171.03 463.442 171.397 462.694 171.69C461.946 171.969 461 172.108 459.856 172.108H457.744V171.668H459.636C460.677 171.668 461.469 171.507 462.012 171.184C462.569 170.847 462.943 170.407 463.134 169.864C463.339 169.307 463.442 168.691 463.442 168.016C463.442 166.857 463.163 165.963 462.606 165.332C462.063 164.687 461.125 164.364 459.79 164.364C459.115 164.364 458.675 164.489 458.47 164.738C458.265 164.987 458.162 165.493 458.162 166.256V177.168C458.162 177.696 458.206 178.092 458.294 178.356C458.382 178.62 458.551 178.796 458.8 178.884C459.064 178.972 459.445 179.031 459.944 179.06V179.5C459.607 179.471 459.181 179.456 458.668 179.456C458.169 179.441 457.663 179.434 457.15 179.434C456.578 179.434 456.043 179.441 455.544 179.456C455.045 179.456 454.642 179.471 454.334 179.5V179.06C454.833 179.031 455.207 178.972 455.456 178.884C455.72 178.796 455.896 178.62 455.984 178.356C456.072 178.092 456.116 177.696 456.116 177.168V166.256C456.116 165.713 456.072 165.317 455.984 165.068C455.896 164.804 455.72 164.628 455.456 164.54C455.207 164.437 454.833 164.379 454.334 164.364V163.924ZM457.832 171.734C458.624 171.763 459.247 171.8 459.702 171.844C460.157 171.873 460.523 171.903 460.802 171.932C461.095 171.961 461.374 171.998 461.638 172.042C462.621 172.203 463.325 172.504 463.75 172.944C464.19 173.369 464.513 174.037 464.718 174.946L465.268 177.19C465.415 177.835 465.561 178.305 465.708 178.598C465.869 178.877 466.111 179.009 466.434 178.994C466.683 178.979 466.889 178.899 467.05 178.752C467.226 178.605 467.409 178.407 467.6 178.158L467.93 178.4C467.622 178.855 467.299 179.207 466.962 179.456C466.639 179.691 466.177 179.808 465.576 179.808C465.033 179.808 464.557 179.647 464.146 179.324C463.735 179.001 463.427 178.371 463.222 177.432L462.738 175.232C462.606 174.601 462.452 174.059 462.276 173.604C462.115 173.135 461.88 172.768 461.572 172.504C461.279 172.24 460.839 172.108 460.252 172.108H457.876L457.832 171.734ZM474.21 163.924V164.364C473.711 164.379 473.33 164.437 473.066 164.54C472.816 164.628 472.648 164.804 472.56 165.068C472.472 165.317 472.428 165.713 472.428 166.256V177.168C472.428 177.696 472.472 178.092 472.56 178.356C472.648 178.62 472.816 178.796 473.066 178.884C473.33 178.972 473.711 179.031 474.21 179.06V179.5C473.872 179.471 473.447 179.456 472.934 179.456C472.435 179.441 471.929 179.434 471.416 179.434C470.844 179.434 470.308 179.441 469.81 179.456C469.311 179.456 468.908 179.471 468.6 179.5V179.06C469.098 179.031 469.472 178.972 469.722 178.884C469.986 178.796 470.162 178.62 470.25 178.356C470.338 178.092 470.382 177.696 470.382 177.168V166.256C470.382 165.713 470.338 165.317 470.25 165.068C470.162 164.804 469.986 164.628 469.722 164.54C469.472 164.437 469.098 164.379 468.6 164.364V163.924C468.908 163.939 469.311 163.953 469.81 163.968C470.308 163.983 470.844 163.99 471.416 163.99C471.929 163.99 472.435 163.983 472.934 163.968C473.447 163.953 473.872 163.939 474.21 163.924ZM483.121 163.616C484.514 163.616 485.732 163.931 486.773 164.562C487.829 165.193 488.643 166.102 489.215 167.29C489.802 168.463 490.095 169.893 490.095 171.58C490.095 173.223 489.794 174.66 489.193 175.892C488.606 177.124 487.785 178.085 486.729 178.774C485.673 179.463 484.463 179.808 483.099 179.808C481.706 179.808 480.481 179.493 479.425 178.862C478.384 178.231 477.57 177.322 476.983 176.134C476.411 174.946 476.125 173.516 476.125 171.844C476.125 170.201 476.426 168.764 477.027 167.532C477.628 166.3 478.45 165.339 479.491 164.65C480.547 163.961 481.757 163.616 483.121 163.616ZM483.033 164.012C482.08 164.012 481.251 164.342 480.547 165.002C479.843 165.662 479.293 166.571 478.897 167.73C478.516 168.889 478.325 170.231 478.325 171.756C478.325 173.311 478.538 174.667 478.963 175.826C479.403 176.97 479.99 177.857 480.723 178.488C481.471 179.104 482.292 179.412 483.187 179.412C484.14 179.412 484.969 179.082 485.673 178.422C486.377 177.762 486.92 176.853 487.301 175.694C487.697 174.521 487.895 173.179 487.895 171.668C487.895 170.099 487.675 168.742 487.235 167.598C486.81 166.454 486.23 165.574 485.497 164.958C484.764 164.327 483.942 164.012 483.033 164.012ZM503.674 163.924C506.299 163.924 508.25 164.584 509.526 165.904C510.802 167.209 511.44 169.087 511.44 171.536C511.44 173.135 511.125 174.535 510.494 175.738C509.878 176.926 508.976 177.85 507.788 178.51C506.6 179.17 505.163 179.5 503.476 179.5C503.256 179.5 502.963 179.493 502.596 179.478C502.229 179.463 501.848 179.456 501.452 179.456C501.071 179.441 500.719 179.434 500.396 179.434C499.883 179.434 499.377 179.441 498.878 179.456C498.379 179.456 497.976 179.471 497.668 179.5V179.06C498.167 179.031 498.541 178.972 498.79 178.884C499.054 178.796 499.23 178.62 499.318 178.356C499.406 178.092 499.45 177.696 499.45 177.168V166.256C499.45 165.713 499.406 165.317 499.318 165.068C499.23 164.804 499.054 164.628 498.79 164.54C498.541 164.437 498.167 164.379 497.668 164.364V163.924C497.976 163.939 498.379 163.961 498.878 163.99C499.377 164.005 499.868 164.005 500.352 163.99C500.865 163.975 501.445 163.961 502.09 163.946C502.735 163.931 503.263 163.924 503.674 163.924ZM503.124 164.32C502.449 164.32 502.009 164.445 501.804 164.694C501.599 164.943 501.496 165.449 501.496 166.212V177.212C501.496 177.975 501.599 178.481 501.804 178.73C502.024 178.979 502.471 179.104 503.146 179.104C504.745 179.104 505.984 178.818 506.864 178.246C507.744 177.659 508.36 176.809 508.712 175.694C509.064 174.579 509.24 173.223 509.24 171.624C509.24 169.981 509.042 168.625 508.646 167.554C508.265 166.469 507.627 165.662 506.732 165.134C505.852 164.591 504.649 164.32 503.124 164.32ZM524.351 163.924C524.293 164.437 524.249 164.936 524.219 165.42C524.205 165.904 524.197 166.271 524.197 166.52C524.197 166.784 524.205 167.041 524.219 167.29C524.234 167.525 524.249 167.723 524.263 167.884H523.757C523.669 167.019 523.545 166.337 523.383 165.838C523.222 165.325 522.943 164.965 522.547 164.76C522.166 164.54 521.587 164.43 520.809 164.43H518.983C518.485 164.43 518.103 164.474 517.839 164.562C517.59 164.635 517.421 164.804 517.333 165.068C517.245 165.317 517.201 165.713 517.201 166.256V177.168C517.201 177.696 517.245 178.092 517.333 178.356C517.421 178.62 517.59 178.796 517.839 178.884C518.103 178.957 518.485 178.994 518.983 178.994H520.589C521.513 178.994 522.21 178.869 522.679 178.62C523.163 178.371 523.508 177.967 523.713 177.41C523.933 176.838 524.095 176.068 524.197 175.1H524.703C524.659 175.496 524.637 176.024 524.637 176.684C524.637 176.963 524.645 177.366 524.659 177.894C524.689 178.407 524.733 178.943 524.791 179.5C524.043 179.471 523.2 179.456 522.261 179.456C521.323 179.441 520.487 179.434 519.753 179.434C519.431 179.434 519.013 179.434 518.499 179.434C518.001 179.434 517.458 179.441 516.871 179.456C516.285 179.456 515.691 179.463 515.089 179.478C514.488 179.478 513.916 179.485 513.373 179.5V179.06C513.872 179.031 514.246 178.972 514.495 178.884C514.759 178.796 514.935 178.62 515.023 178.356C515.111 178.092 515.155 177.696 515.155 177.168V166.256C515.155 165.713 515.111 165.317 515.023 165.068C514.935 164.804 514.759 164.628 514.495 164.54C514.246 164.437 513.872 164.379 513.373 164.364V163.924C513.916 163.939 514.488 163.953 515.089 163.968C515.691 163.968 516.285 163.975 516.871 163.99C517.458 163.99 518.001 163.99 518.499 163.99C519.013 163.99 519.431 163.99 519.753 163.99C520.428 163.99 521.191 163.99 522.041 163.99C522.907 163.975 523.677 163.953 524.351 163.924ZM520.567 171.448C520.567 171.448 520.567 171.521 520.567 171.668C520.567 171.815 520.567 171.888 520.567 171.888H516.541C516.541 171.888 516.541 171.815 516.541 171.668C516.541 171.521 516.541 171.448 516.541 171.448H520.567ZM521.205 168.544C521.147 169.38 521.117 170.018 521.117 170.458C521.132 170.898 521.139 171.301 521.139 171.668C521.139 172.035 521.147 172.438 521.161 172.878C521.176 173.318 521.213 173.956 521.271 174.792H520.765C520.707 174.323 520.633 173.868 520.545 173.428C520.472 172.973 520.296 172.607 520.017 172.328C519.753 172.035 519.299 171.888 518.653 171.888V171.448C519.137 171.448 519.504 171.353 519.753 171.162C520.017 170.957 520.208 170.7 520.325 170.392C520.443 170.084 520.523 169.769 520.567 169.446C520.611 169.109 520.655 168.808 520.699 168.544H521.205ZM539.496 163.616C540.464 163.616 541.256 163.763 541.872 164.056C542.503 164.335 543.06 164.665 543.544 165.046C543.837 165.266 544.057 165.295 544.204 165.134C544.365 164.958 544.475 164.555 544.534 163.924H545.04C545.011 164.467 544.989 165.127 544.974 165.904C544.959 166.681 544.952 167.708 544.952 168.984H544.446C544.343 168.353 544.248 167.855 544.16 167.488C544.072 167.107 543.962 166.784 543.83 166.52C543.713 166.256 543.551 165.992 543.346 165.728C542.891 165.127 542.319 164.694 541.63 164.43C540.941 164.151 540.215 164.012 539.452 164.012C538.733 164.012 538.081 164.195 537.494 164.562C536.922 164.914 536.423 165.427 535.998 166.102C535.587 166.777 535.265 167.591 535.03 168.544C534.81 169.497 534.7 170.568 534.7 171.756C534.7 172.988 534.825 174.081 535.074 175.034C535.323 175.973 535.668 176.765 536.108 177.41C536.563 178.055 537.091 178.547 537.692 178.884C538.308 179.207 538.968 179.368 539.672 179.368C540.332 179.368 541.021 179.236 541.74 178.972C542.459 178.708 543.023 178.283 543.434 177.696C543.757 177.271 543.977 176.809 544.094 176.31C544.226 175.811 544.343 175.115 544.446 174.22H544.952C544.952 175.555 544.959 176.633 544.974 177.454C544.989 178.261 545.011 178.943 545.04 179.5H544.534C544.475 178.869 544.373 178.473 544.226 178.312C544.094 178.151 543.867 178.173 543.544 178.378C543.001 178.759 542.422 179.097 541.806 179.39C541.205 179.669 540.427 179.808 539.474 179.808C538.081 179.808 536.856 179.493 535.8 178.862C534.759 178.231 533.945 177.322 533.358 176.134C532.786 174.946 532.5 173.516 532.5 171.844C532.5 170.201 532.801 168.764 533.402 167.532C534.003 166.3 534.825 165.339 535.866 164.65C536.922 163.961 538.132 163.616 539.496 163.616ZM554.642 163.616C556.036 163.616 557.253 163.931 558.294 164.562C559.35 165.193 560.164 166.102 560.736 167.29C561.323 168.463 561.616 169.893 561.616 171.58C561.616 173.223 561.316 174.66 560.714 175.892C560.128 177.124 559.306 178.085 558.25 178.774C557.194 179.463 555.984 179.808 554.62 179.808C553.227 179.808 552.002 179.493 550.946 178.862C549.905 178.231 549.091 177.322 548.504 176.134C547.932 174.946 547.646 173.516 547.646 171.844C547.646 170.201 547.947 168.764 548.548 167.532C549.15 166.3 549.971 165.339 551.012 164.65C552.068 163.961 553.278 163.616 554.642 163.616ZM554.554 164.012C553.601 164.012 552.772 164.342 552.068 165.002C551.364 165.662 550.814 166.571 550.418 167.73C550.037 168.889 549.846 170.231 549.846 171.756C549.846 173.311 550.059 174.667 550.484 175.826C550.924 176.97 551.511 177.857 552.244 178.488C552.992 179.104 553.814 179.412 554.708 179.412C555.662 179.412 556.49 179.082 557.194 178.422C557.898 177.762 558.441 176.853 558.822 175.694C559.218 174.521 559.416 173.179 559.416 171.668C559.416 170.099 559.196 168.742 558.756 167.598C558.331 166.454 557.752 165.574 557.018 164.958C556.285 164.327 555.464 164.012 554.554 164.012ZM577.355 163.924V164.364C576.857 164.379 576.475 164.452 576.211 164.584C575.962 164.716 575.793 164.929 575.705 165.222C575.617 165.515 575.573 165.933 575.573 166.476V179.61C575.485 179.61 575.397 179.61 575.309 179.61C575.236 179.61 575.155 179.61 575.067 179.61L565.827 165.332V176.948C565.827 177.476 565.871 177.894 565.959 178.202C566.062 178.495 566.253 178.708 566.531 178.84C566.825 178.957 567.257 179.031 567.829 179.06V179.5C567.565 179.471 567.221 179.456 566.795 179.456C566.37 179.441 565.967 179.434 565.585 179.434C565.219 179.434 564.845 179.441 564.463 179.456C564.097 179.456 563.789 179.471 563.539 179.5V179.06C564.038 179.031 564.412 178.957 564.661 178.84C564.925 178.708 565.101 178.495 565.189 178.202C565.277 177.894 565.321 177.476 565.321 176.948V166.256C565.321 165.713 565.277 165.317 565.189 165.068C565.101 164.804 564.925 164.628 564.661 164.54C564.412 164.437 564.038 164.379 563.539 164.364V163.924C563.789 163.939 564.097 163.953 564.463 163.968C564.845 163.983 565.219 163.99 565.585 163.99C565.908 163.99 566.216 163.983 566.509 163.968C566.803 163.953 567.067 163.939 567.301 163.924L575.067 175.892V166.476C575.067 165.933 575.016 165.515 574.913 165.222C574.825 164.929 574.635 164.716 574.341 164.584C574.063 164.452 573.637 164.379 573.065 164.364V163.924C573.329 163.939 573.674 163.953 574.099 163.968C574.539 163.983 574.943 163.99 575.309 163.99C575.691 163.99 576.065 163.983 576.431 163.968C576.813 163.953 577.121 163.939 577.355 163.924ZM591.172 163.924C591.114 164.481 591.07 165.024 591.04 165.552C591.026 166.065 591.018 166.461 591.018 166.74C591.018 167.092 591.026 167.422 591.04 167.73C591.055 168.038 591.07 168.309 591.084 168.544H590.578C590.476 167.517 590.336 166.711 590.16 166.124C589.984 165.523 589.676 165.09 589.236 164.826C588.796 164.562 588.114 164.43 587.19 164.43H586.002V176.948C586.002 177.535 586.054 177.975 586.156 178.268C586.274 178.561 586.494 178.759 586.816 178.862C587.139 178.965 587.608 179.031 588.224 179.06V179.5C587.843 179.471 587.359 179.456 586.772 179.456C586.186 179.441 585.592 179.434 584.99 179.434C584.33 179.434 583.707 179.441 583.12 179.456C582.548 179.456 582.086 179.471 581.734 179.5V179.06C582.35 179.031 582.82 178.965 583.142 178.862C583.465 178.759 583.678 178.561 583.78 178.268C583.898 177.975 583.956 177.535 583.956 176.948V164.43H582.768C581.859 164.43 581.177 164.562 580.722 164.826C580.282 165.09 579.974 165.523 579.798 166.124C579.622 166.711 579.483 167.517 579.38 168.544H578.874C578.904 168.309 578.918 168.038 578.918 167.73C578.933 167.422 578.94 167.092 578.94 166.74C578.94 166.461 578.926 166.065 578.896 165.552C578.882 165.024 578.845 164.481 578.786 163.924C579.402 163.939 580.07 163.953 580.788 163.968C581.522 163.983 582.255 163.99 582.988 163.99C583.722 163.99 584.389 163.99 584.99 163.99C585.592 163.99 586.252 163.99 586.97 163.99C587.704 163.99 588.437 163.983 589.17 163.968C589.904 163.953 590.571 163.939 591.172 163.924ZM597.887 163.814L603.255 177.652C603.475 178.209 603.725 178.583 604.003 178.774C604.282 178.95 604.539 179.045 604.773 179.06V179.5C604.48 179.471 604.121 179.456 603.695 179.456C603.27 179.441 602.845 179.434 602.419 179.434C601.847 179.434 601.312 179.441 600.813 179.456C600.315 179.456 599.911 179.471 599.603 179.5V179.06C600.351 179.031 600.828 178.906 601.033 178.686C601.239 178.451 601.195 177.96 600.901 177.212L596.809 166.278L597.161 165.992L593.333 175.936C593.099 176.523 592.959 177.021 592.915 177.432C592.871 177.828 592.908 178.143 593.025 178.378C593.157 178.613 593.37 178.781 593.663 178.884C593.971 178.987 594.353 179.045 594.807 179.06V179.5C594.397 179.471 593.964 179.456 593.509 179.456C593.069 179.441 592.659 179.434 592.277 179.434C591.911 179.434 591.595 179.441 591.331 179.456C591.082 179.456 590.847 179.471 590.627 179.5V179.06C590.921 178.987 591.221 178.818 591.529 178.554C591.837 178.275 592.116 177.806 592.365 177.146L597.535 163.814C597.594 163.814 597.653 163.814 597.711 163.814C597.77 163.814 597.829 163.814 597.887 163.814ZM600.571 173.164V173.604H594.015L594.235 173.164H600.571ZM605.133 163.924C605.441 163.939 605.844 163.953 606.343 163.968C606.842 163.983 607.333 163.99 607.817 163.99C608.506 163.99 609.166 163.983 609.797 163.968C610.428 163.953 610.875 163.946 611.139 163.946C612.679 163.946 613.838 164.269 614.615 164.914C615.392 165.559 615.781 166.388 615.781 167.4C615.781 167.913 615.671 168.419 615.451 168.918C615.246 169.402 614.894 169.849 614.395 170.26C613.911 170.656 613.258 170.979 612.437 171.228V171.272C613.596 171.419 614.498 171.697 615.143 172.108C615.803 172.504 616.265 172.973 616.529 173.516C616.793 174.059 616.925 174.631 616.925 175.232C616.925 176.068 616.712 176.809 616.287 177.454C615.876 178.085 615.275 178.583 614.483 178.95C613.691 179.317 612.745 179.5 611.645 179.5C611.322 179.5 610.838 179.493 610.193 179.478C609.548 179.449 608.77 179.434 607.861 179.434C607.348 179.434 606.842 179.441 606.343 179.456C605.844 179.456 605.441 179.471 605.133 179.5V179.06C605.632 179.031 606.006 178.972 606.255 178.884C606.519 178.796 606.695 178.62 606.783 178.356C606.871 178.092 606.915 177.696 606.915 177.168V166.256C606.915 165.713 606.871 165.317 606.783 165.068C606.695 164.804 606.519 164.628 606.255 164.54C606.006 164.437 605.632 164.379 605.133 164.364V163.924ZM610.589 164.364C609.914 164.364 609.474 164.489 609.269 164.738C609.064 164.987 608.961 165.493 608.961 166.256V177.168C608.961 177.681 609.005 178.07 609.093 178.334C609.181 178.598 609.342 178.774 609.577 178.862C609.812 178.95 610.156 178.994 610.611 178.994C612.048 178.994 613.09 178.664 613.735 178.004C614.395 177.329 614.725 176.376 614.725 175.144C614.725 174.015 614.417 173.142 613.801 172.526C613.2 171.91 612.202 171.602 610.809 171.602H608.543C608.543 171.602 608.543 171.543 608.543 171.426C608.543 171.294 608.543 171.228 608.543 171.228H610.435C611.3 171.228 611.968 171.067 612.437 170.744C612.906 170.407 613.229 169.967 613.405 169.424C613.581 168.867 613.669 168.273 613.669 167.642C613.669 166.557 613.427 165.743 612.943 165.2C612.474 164.643 611.689 164.364 610.589 164.364ZM624.3 163.924V164.364C623.801 164.379 623.42 164.437 623.156 164.54C622.906 164.628 622.738 164.804 622.65 165.068C622.562 165.317 622.518 165.713 622.518 166.256V177.168C622.518 177.696 622.562 178.092 622.65 178.356C622.738 178.62 622.906 178.796 623.156 178.884C623.42 178.972 623.801 179.031 624.3 179.06V179.5C623.962 179.471 623.537 179.456 623.024 179.456C622.525 179.441 622.019 179.434 621.506 179.434C620.934 179.434 620.398 179.441 619.9 179.456C619.401 179.456 618.998 179.471 618.69 179.5V179.06C619.188 179.031 619.562 178.972 619.812 178.884C620.076 178.796 620.252 178.62 620.34 178.356C620.428 178.092 620.472 177.696 620.472 177.168V166.256C620.472 165.713 620.428 165.317 620.34 165.068C620.252 164.804 620.076 164.628 619.812 164.54C619.562 164.437 619.188 164.379 618.69 164.364V163.924C618.998 163.939 619.401 163.953 619.9 163.968C620.398 163.983 620.934 163.99 621.506 163.99C622.019 163.99 622.525 163.983 623.024 163.968C623.537 163.953 623.962 163.939 624.3 163.924ZM631.755 163.924V164.364C631.256 164.379 630.875 164.437 630.611 164.54C630.361 164.628 630.193 164.804 630.105 165.068C630.017 165.317 629.973 165.713 629.973 166.256V177.168C629.973 177.696 630.017 178.092 630.105 178.356C630.193 178.62 630.361 178.796 630.611 178.884C630.875 178.957 631.256 178.994 631.755 178.994H633.361C634.05 178.994 634.607 178.921 635.033 178.774C635.473 178.627 635.817 178.4 636.067 178.092C636.331 177.769 636.529 177.344 636.661 176.816C636.793 176.288 636.895 175.643 636.969 174.88H637.475C637.431 175.335 637.409 175.936 637.409 176.684C637.409 176.963 637.416 177.366 637.431 177.894C637.46 178.407 637.504 178.943 637.563 179.5C636.815 179.471 635.971 179.456 635.033 179.456C634.094 179.441 633.258 179.434 632.525 179.434C632.202 179.434 631.784 179.434 631.271 179.434C630.772 179.434 630.229 179.441 629.643 179.456C629.056 179.456 628.462 179.463 627.861 179.478C627.259 179.478 626.687 179.485 626.145 179.5V179.06C626.643 179.031 627.017 178.972 627.267 178.884C627.531 178.796 627.707 178.62 627.795 178.356C627.883 178.092 627.927 177.696 627.927 177.168V166.256C627.927 165.713 627.883 165.317 627.795 165.068C627.707 164.804 627.531 164.628 627.267 164.54C627.017 164.437 626.643 164.379 626.145 164.364V163.924C626.453 163.939 626.856 163.953 627.355 163.968C627.853 163.983 628.389 163.99 628.961 163.99C629.474 163.99 629.98 163.983 630.479 163.968C630.992 163.953 631.417 163.939 631.755 163.924ZM644.688 163.924V164.364C644.19 164.379 643.808 164.437 643.544 164.54C643.295 164.628 643.126 164.804 643.038 165.068C642.95 165.317 642.906 165.713 642.906 166.256V177.168C642.906 177.696 642.95 178.092 643.038 178.356C643.126 178.62 643.295 178.796 643.544 178.884C643.808 178.972 644.19 179.031 644.688 179.06V179.5C644.351 179.471 643.926 179.456 643.412 179.456C642.914 179.441 642.408 179.434 641.894 179.434C641.322 179.434 640.787 179.441 640.288 179.456C639.79 179.456 639.386 179.471 639.078 179.5V179.06C639.577 179.031 639.951 178.972 640.2 178.884C640.464 178.796 640.64 178.62 640.728 178.356C640.816 178.092 640.86 177.696 640.86 177.168V166.256C640.86 165.713 640.816 165.317 640.728 165.068C640.64 164.804 640.464 164.628 640.2 164.54C639.951 164.437 639.577 164.379 639.078 164.364V163.924C639.386 163.939 639.79 163.953 640.288 163.968C640.787 163.983 641.322 163.99 641.894 163.99C642.408 163.99 642.914 163.983 643.412 163.968C643.926 163.953 644.351 163.939 644.688 163.924ZM652.539 163.924C655.165 163.924 657.115 164.584 658.391 165.904C659.667 167.209 660.305 169.087 660.305 171.536C660.305 173.135 659.99 174.535 659.359 175.738C658.743 176.926 657.841 177.85 656.653 178.51C655.465 179.17 654.028 179.5 652.341 179.5C652.121 179.5 651.828 179.493 651.461 179.478C651.095 179.463 650.713 179.456 650.317 179.456C649.936 179.441 649.584 179.434 649.261 179.434C648.748 179.434 648.242 179.441 647.743 179.456C647.245 179.456 646.841 179.471 646.533 179.5V179.06C647.032 179.031 647.406 178.972 647.655 178.884C647.919 178.796 648.095 178.62 648.183 178.356C648.271 178.092 648.315 177.696 648.315 177.168V166.256C648.315 165.713 648.271 165.317 648.183 165.068C648.095 164.804 647.919 164.628 647.655 164.54C647.406 164.437 647.032 164.379 646.533 164.364V163.924C646.841 163.939 647.245 163.961 647.743 163.99C648.242 164.005 648.733 164.005 649.217 163.99C649.731 163.975 650.31 163.961 650.955 163.946C651.601 163.931 652.129 163.924 652.539 163.924ZM651.989 164.32C651.315 164.32 650.875 164.445 650.669 164.694C650.464 164.943 650.361 165.449 650.361 166.212V177.212C650.361 177.975 650.464 178.481 650.669 178.73C650.889 178.979 651.337 179.104 652.011 179.104C653.61 179.104 654.849 178.818 655.729 178.246C656.609 177.659 657.225 176.809 657.577 175.694C657.929 174.579 658.105 173.223 658.105 171.624C658.105 169.981 657.907 168.625 657.511 167.554C657.13 166.469 656.492 165.662 655.597 165.134C654.717 164.591 653.515 164.32 651.989 164.32ZM668.141 163.814L673.509 177.652C673.729 178.209 673.978 178.583 674.257 178.774C674.536 178.95 674.792 179.045 675.027 179.06V179.5C674.734 179.471 674.374 179.456 673.949 179.456C673.524 179.441 673.098 179.434 672.673 179.434C672.101 179.434 671.566 179.441 671.067 179.456C670.568 179.456 670.165 179.471 669.857 179.5V179.06C670.605 179.031 671.082 178.906 671.287 178.686C671.492 178.451 671.448 177.96 671.155 177.212L667.063 166.278L667.415 165.992L663.587 175.936C663.352 176.523 663.213 177.021 663.169 177.432C663.125 177.828 663.162 178.143 663.279 178.378C663.411 178.613 663.624 178.781 663.917 178.884C664.225 178.987 664.606 179.045 665.061 179.06V179.5C664.65 179.471 664.218 179.456 663.763 179.456C663.323 179.441 662.912 179.434 662.531 179.434C662.164 179.434 661.849 179.441 661.585 179.456C661.336 179.456 661.101 179.471 660.881 179.5V179.06C661.174 178.987 661.475 178.818 661.783 178.554C662.091 178.275 662.37 177.806 662.619 177.146L667.789 163.814C667.848 163.814 667.906 163.814 667.965 163.814C668.024 163.814 668.082 163.814 668.141 163.814ZM670.825 173.164V173.604H664.269L664.489 173.164H670.825ZM681.393 163.924C684.018 163.924 685.969 164.584 687.245 165.904C688.521 167.209 689.159 169.087 689.159 171.536C689.159 173.135 688.844 174.535 688.213 175.738C687.597 176.926 686.695 177.85 685.507 178.51C684.319 179.17 682.882 179.5 681.195 179.5C680.975 179.5 680.682 179.493 680.315 179.478C679.948 179.463 679.567 179.456 679.171 179.456C678.79 179.441 678.438 179.434 678.115 179.434C677.602 179.434 677.096 179.441 676.597 179.456C676.098 179.456 675.695 179.471 675.387 179.5V179.06C675.886 179.031 676.26 178.972 676.509 178.884C676.773 178.796 676.949 178.62 677.037 178.356C677.125 178.092 677.169 177.696 677.169 177.168V166.256C677.169 165.713 677.125 165.317 677.037 165.068C676.949 164.804 676.773 164.628 676.509 164.54C676.26 164.437 675.886 164.379 675.387 164.364V163.924C675.695 163.939 676.098 163.961 676.597 163.99C677.096 164.005 677.587 164.005 678.071 163.99C678.584 163.975 679.164 163.961 679.809 163.946C680.454 163.931 680.982 163.924 681.393 163.924ZM680.843 164.32C680.168 164.32 679.728 164.445 679.523 164.694C679.318 164.943 679.215 165.449 679.215 166.212V177.212C679.215 177.975 679.318 178.481 679.523 178.73C679.743 178.979 680.19 179.104 680.865 179.104C682.464 179.104 683.703 178.818 684.583 178.246C685.463 177.659 686.079 176.809 686.431 175.694C686.783 174.579 686.959 173.223 686.959 171.624C686.959 169.981 686.761 168.625 686.365 167.554C685.984 166.469 685.346 165.662 684.451 165.134C683.571 164.591 682.368 164.32 680.843 164.32ZM702.07 163.924C702.011 164.437 701.967 164.936 701.938 165.42C701.923 165.904 701.916 166.271 701.916 166.52C701.916 166.784 701.923 167.041 701.938 167.29C701.953 167.525 701.967 167.723 701.982 167.884H701.476C701.388 167.019 701.263 166.337 701.102 165.838C700.941 165.325 700.662 164.965 700.266 164.76C699.885 164.54 699.305 164.43 698.528 164.43H696.702C696.203 164.43 695.822 164.474 695.558 164.562C695.309 164.635 695.14 164.804 695.052 165.068C694.964 165.317 694.92 165.713 694.92 166.256V177.168C694.92 177.696 694.964 178.092 695.052 178.356C695.14 178.62 695.309 178.796 695.558 178.884C695.822 178.957 696.203 178.994 696.702 178.994H698.308C699.232 178.994 699.929 178.869 700.398 178.62C700.882 178.371 701.227 177.967 701.432 177.41C701.652 176.838 701.813 176.068 701.916 175.1H702.422C702.378 175.496 702.356 176.024 702.356 176.684C702.356 176.963 702.363 177.366 702.378 177.894C702.407 178.407 702.451 178.943 702.51 179.5C701.762 179.471 700.919 179.456 699.98 179.456C699.041 179.441 698.205 179.434 697.472 179.434C697.149 179.434 696.731 179.434 696.218 179.434C695.719 179.434 695.177 179.441 694.59 179.456C694.003 179.456 693.409 179.463 692.808 179.478C692.207 179.478 691.635 179.485 691.092 179.5V179.06C691.591 179.031 691.965 178.972 692.214 178.884C692.478 178.796 692.654 178.62 692.742 178.356C692.83 178.092 692.874 177.696 692.874 177.168V166.256C692.874 165.713 692.83 165.317 692.742 165.068C692.654 164.804 692.478 164.628 692.214 164.54C691.965 164.437 691.591 164.379 691.092 164.364V163.924C691.635 163.939 692.207 163.953 692.808 163.968C693.409 163.968 694.003 163.975 694.59 163.99C695.177 163.99 695.719 163.99 696.218 163.99C696.731 163.99 697.149 163.99 697.472 163.99C698.147 163.99 698.909 163.99 699.76 163.99C700.625 163.975 701.395 163.953 702.07 163.924ZM698.286 171.448C698.286 171.448 698.286 171.521 698.286 171.668C698.286 171.815 698.286 171.888 698.286 171.888H694.26C694.26 171.888 694.26 171.815 694.26 171.668C694.26 171.521 694.26 171.448 694.26 171.448H698.286ZM698.924 168.544C698.865 169.38 698.836 170.018 698.836 170.458C698.851 170.898 698.858 171.301 698.858 171.668C698.858 172.035 698.865 172.438 698.88 172.878C698.895 173.318 698.931 173.956 698.99 174.792H698.484C698.425 174.323 698.352 173.868 698.264 173.428C698.191 172.973 698.015 172.607 697.736 172.328C697.472 172.035 697.017 171.888 696.372 171.888V171.448C696.856 171.448 697.223 171.353 697.472 171.162C697.736 170.957 697.927 170.7 698.044 170.392C698.161 170.084 698.242 169.769 698.286 169.446C698.33 169.109 698.374 168.808 698.418 168.544H698.924ZM718.513 172.944V174.22H710.571V172.944H718.513Z" fill="#8C4F06"/>
<defs>
<filter id="filter0_i_113_53" x="7.68402" y="0.507935" width="1050.98" height="142.368" filterUnits="userSpaceOnUse" color-interpolation-filters="sRGB">
<feFlood flood-opacity="0" result="BackgroundImageFix"/>
<feBlend mode="normal" in="SourceGraphic" in2="BackgroundImageFix" result="shape"/>
<feColorMatrix in="SourceAlpha" type="matrix" values="0 0 0 0 0 0 0 0 0 0 0 0 0 0 0 0 0 0 127 0" result="hardAlpha"/>
<feOffset dy="4"/>
<feGaussianBlur stdDeviation="2"/>
<feComposite in2="hardAlpha" operator="arithmetic" k2="-1" k3="1"/>
<feColorMatrix type="matrix" values="0 0 0 0 0 0 0 0 0 0 0 0 0 0 0 0 0 0 0.25 0"/>
<feBlend mode="normal" in2="shape" result="effect1_innerShadow_113_53"/>
</filter>
<linearGradient id="paint0_linear_113_53" x1="1055.5" y1="98.0059" x2="10.5" y2="98.0059" gradientUnits="userSpaceOnUse">
<stop stop-color="#8C4F06"/>
<stop offset="0.5" stop-color="#CF7E1D" stop-opacity="0.9"/>
<stop offset="1" stop-color="#8C4F06"/>
</linearGradient>
</defs>
</svg>
